<?xml version="1.0" standalone="no"?><!DOCTYPE svg PUBLIC "-//W3C//DTD SVG 1.1//EN" "http://www.w3.org/Graphics/SVG/1.1/DTD/svg11.dtd"><svg t="1610284230830" class="icon" viewBox="0 0 1024 1024" version="1.1" xmlns="http://www.w3.org/2000/svg" p-id="1673" xmlns:xlink="http://www.w3.org/1999/xlink" width="200" height="200"><defs><style type="text/css"></style></defs><path d="M819.2 102.4a102.4 102.4 0 0 1 102.4 102.4v614.4a102.4 102.4 0 0 1-102.4 102.4H204.8a102.4 102.4 0 0 1-102.4-102.4V204.8a102.4 102.4 0 0 1 102.4-102.4h614.4z m0 76.8H204.8a25.6 25.6 0 0 0-25.6 25.6v614.4a25.6 25.6 0 0 0 25.6 25.6h614.4a25.6 25.6 0 0 0 25.6-25.6V204.8a25.6 25.6 0 0 0-25.6-25.6z" fill="#887E7E" p-id="1674"></path><path d="M472.6272 423.3216a38.4 38.4 0 0 1 38.4 38.4v255.3856a38.4 38.4 0 0 1-38.4 38.4H307.2a38.4 38.4 0 0 1-38.4-38.4V461.7216a38.4 38.4 0 0 1 38.4-38.4h165.4272z m-38.4 76.8H345.6v178.5856h88.6272V500.1216zM307.2 347.3408h409.6a38.4 38.4 0 1 0 0-76.8H307.2a38.4 38.4 0 1 0 0 76.8zM610.2016 550.4H716.8a38.4 38.4 0 1 0 0-76.8h-106.5984a38.4 38.4 0 0 0 0 76.8zM610.2016 753.4592H716.8a38.4 38.4 0 0 0 0-76.8h-106.5984a38.4 38.4 0 0 0 0 76.8z" fill="#887E7E" p-id="1675"></path></svg>