<?xml version="1.0" encoding="UTF-8"?>
<svg width="20px" height="20px" viewBox="0 0 20 20" version="1.1" xmlns="http://www.w3.org/2000/svg" xmlns:xlink="http://www.w3.org/1999/xlink">
    <!-- Generator: Sketch 59.1 (86144) - https://sketch.com -->
    <title>icon_menu_sygl_nor</title>
    <desc>Created with Sketch.</desc>
    <g id="页面-1" stroke="none" stroke-width="1" fill="none" fill-rule="evenodd">
        <g id="基础信息_仓库管理_列表" transform="translate(-31.000000, -569.000000)">
            <g id="-mockplus-" transform="translate(30.890598, 568.992948)">
                <g id="icon_menu_gongzuotai备份-24" transform="translate(0.109402, 0.007052)">
                    <path d="M17.0302734,4.26098633 C17.9967717,4.26098633 18.7802734,5.04448802 18.7802734,6.01098633 L18.7802734,16.3850098 C18.7802734,17.3515081 17.9967717,18.1350098 17.0302734,18.1350098 L2.96972656,18.1350098 C2.00322825,18.1350098 1.21972656,17.3515081 1.21972656,16.3850098 L1.21972656,6.01098633 C1.21972656,5.04448802 2.00322825,4.26098633 2.96972656,4.26098633 L17.0302734,4.26098633 Z M17.0302734,5.76098633 L2.96972656,5.76098633 C2.83165538,5.76098633 2.71972656,5.87291514 2.71972656,6.01098633 L2.71972656,16.3850098 C2.71972656,16.523081 2.83165538,16.6350098 2.96972656,16.6350098 L17.0302734,16.6350098 C17.1683446,16.6350098 17.2802734,16.523081 17.2802734,16.3850098 L17.2802734,6.01098633 C17.2802734,5.87291514 17.1683446,5.76098633 17.0302734,5.76098633 Z" id="矩形" fill="#887E7E" fill-rule="nonzero"></path>
                    <path d="M12.7492676,1.85107422 C13.7157659,1.85107422 14.4992676,2.63457591 14.4992676,3.60107422 L14.4992676,5.76098633 L5.50073242,5.76098633 L5.50073242,3.60107422 C5.50073242,2.63457591 6.28423411,1.85107422 7.25073242,1.85107422 L12.7492676,1.85107422 Z M12.9992676,4.26098633 L12.9992676,3.60107422 C12.9992676,3.46300303 12.8873388,3.35107422 12.7492676,3.35107422 L7.25073242,3.35107422 C7.11266123,3.35107422 7.00073242,3.46300303 7.00073242,3.60107422 L7.00073242,4.26098633 L12.9992676,4.26098633 Z" id="矩形备份-2" fill="#887E7E" fill-rule="nonzero"></path>
                    <path d="M17.0302734,4.26098633 C17.9967717,4.26098633 18.7802734,5.04448802 18.7802734,6.01098633 L18.7802734,7.78191494 C18.7802734,8.59487384 18.220424,9.30077763 17.4288292,9.48592589 L10.3916506,11.1318707 C10.1292584,11.1932423 9.85623779,11.1931887 9.59386975,11.131714 L2.57050145,9.4860891 C1.77922965,9.30068852 1.21972656,8.59493679 1.21972656,7.78223485 L1.21972656,6.01098633 C1.21972656,5.04448802 2.00322825,4.26098633 2.96972656,4.26098633 L17.0302734,4.26098633 Z M17.0302734,5.76098633 L2.96972656,5.76098633 C2.83165538,5.76098633 2.71972656,5.87291514 2.71972656,6.01098633 L2.71972656,7.78223485 C2.71972656,7.89833513 2.79965558,7.9991568 2.9126944,8.0256426 L9.9360627,9.67126751 C9.97354385,9.6800496 10.0125468,9.68005727 10.0500314,9.67128989 L17.08721,8.02534507 C17.2002949,7.99889532 17.2802734,7.89805192 17.2802734,7.78191494 L17.2802734,6.01098633 C17.2802734,5.87291514 17.1683446,5.76098633 17.0302734,5.76098633 Z" id="矩形备份" fill="#887E7E" fill-rule="nonzero"></path>
                    <path d="M10.5549316,8.23876953 C11.2452876,8.23876953 11.8049316,8.79841359 11.8049316,9.48876953 L11.8049316,11.3639205 C11.8049316,12.0542764 11.2452876,12.6139205 10.5549316,12.6139205 L9.44506836,12.6139205 C8.75471242,12.6139205 8.19506836,12.0542764 8.19506836,11.3639205 L8.19506836,9.48876953 C8.19506836,8.79841359 8.75471242,8.23876953 9.44506836,8.23876953 L10.5549316,8.23876953 Z M10.3049316,9.73876953 L9.69506836,9.73876953 L9.69506836,11.1139205 L10.3049316,11.1139205 L10.3049316,9.73876953 Z" id="矩形" fill="#887E7E" fill-rule="nonzero"></path>
                    <rect id="矩形" fill="#FFFFFF" x="9.62347412" y="9.51593018" width="1" height="1.82082964" rx="0.2"></rect>
                </g>
            </g>
        </g>
    </g>
</svg>