<?xml version="1.0" encoding="UTF-8"?>
<svg width="21px" height="21px" viewBox="0 0 21 21" version="1.1" xmlns="http://www.w3.org/2000/svg" xmlns:xlink="http://www.w3.org/1999/xlink">
    <!-- Generator: Sketch 59.1 (86144) - https://sketch.com -->
    <title>-mockplus-</title>
    <desc>Created with Sketch.</desc>
    <g id="页面-1" stroke="none" stroke-width="1" fill="none" fill-rule="evenodd">
        <g id="基础信息_仓库管理_列表" transform="translate(-30.000000, -736.000000)" fill="#887E7E" fill-rule="nonzero">
            <g id="-mockplus-" transform="translate(30.890598, 736.992948)">
                <g id="icon_menu_gongzuotai备份-27" transform="translate(0.109402, 0.007052)">
                    <path d="M3.1633822,7.23478153 L10,3.28765841 L16.8366178,7.23478153 L16.8366178,16.7087402 L12.4414063,16.7087402 C12.0271927,16.7087402 11.6914063,17.0445267 11.6914063,17.4587402 C11.6914063,17.8729538 12.0271927,18.2087402 12.4414063,18.2087402 L17.0866178,18.2087402 C17.7769737,18.2087402 18.3366178,17.6490962 18.3366178,16.9587402 L18.3366178,7.09044397 C18.3366178,6.64386198 18.0983691,6.23120321 17.7116178,6.00791221 L10.625,1.91645152 C10.2382487,1.69316053 9.76175135,1.69316053 9.375,1.91645152 L2.2883822,6.00791221 C1.90163086,6.23120321 1.6633822,6.64386198 1.6633822,7.09044397 L1.6633822,10.5698242 C1.6633822,10.9840378 1.99916864,11.3198242 2.4133822,11.3198242 C2.82759577,11.3198242 3.1633822,10.9840378 3.1633822,10.5698242 L3.1633822,7.23478153 Z" id="路径" transform="translate(10.000000, 9.978862) scale(-1, 1) translate(-10.000000, -9.978862) "></path>
                    <path d="M15.9654857,16.5876081 C15.9654857,17.0018217 16.3012721,17.3376081 16.7154857,17.3376081 C17.1296992,17.3376081 17.4654857,17.0018217 17.4654857,16.5876081 L17.4654857,12.3814101 C17.4654857,11.9671965 17.1296992,11.6314101 16.7154857,11.6314101 L12.5092876,11.6314101 C12.0950741,11.6314101 11.7592876,11.9671965 11.7592876,12.3814101 C11.7592876,12.7956236 12.0950741,13.1314101 12.5092876,13.1314101 L15.9654857,13.1314101 L15.9654857,16.5876081 Z" id="路径" transform="translate(14.612387, 14.484509) rotate(-315.000000) translate(-14.612387, -14.484509) "></path>
                    <path d="M16.6080535,13.7345091 L10,13.7345091 C9.58578644,13.7345091 9.25,14.0702955 9.25,14.4845091 C9.25,14.8987226 9.58578644,15.2345091 10,15.2345091 L16.6080535,15.2345091 C17.022267,15.2345091 17.3580535,14.8987226 17.3580535,14.4845091 C17.3580535,14.0702955 17.022267,13.7345091 16.6080535,13.7345091 Z" id="直线-2"></path>
                </g>
            </g>
        </g>
    </g>
</svg>