<?xml version="1.0" encoding="UTF-8"?>
<svg width="20px" height="20px" viewBox="0 0 20 20" version="1.1" xmlns="http://www.w3.org/2000/svg" xmlns:xlink="http://www.w3.org/1999/xlink">
    <!-- Generator: Sketch 59.1 (86144) - https://sketch.com -->
    <title>icon_menu_kngl_nor</title>
    <desc>Created with Sketch.</desc>
    <g id="页面-1" stroke="none" stroke-width="1" fill="none" fill-rule="evenodd">
        <g id="基础信息_仓库管理_新增-展开标签" transform="translate(-31.000000, -625.000000)" fill="#887E7E" fill-rule="nonzero">
            <g id="-mockplus-" transform="translate(30.890598, 624.992948)">
                <g id="icon_menu_gongzuotai备份-25" transform="translate(0.109402, 0.007052)">
                    <path d="M10.625,1.91645152 L17.7116178,6.00791221 C18.0983691,6.23120321 18.3366178,6.64386198 18.3366178,7.09044397 L18.3366178,16.3853582 C18.3366178,17.3518566 17.5531161,18.1353582 16.5866178,18.1353582 L3.4133822,18.1353582 C2.44688389,18.1353582 1.6633822,17.3518566 1.6633822,16.3853582 L1.6633822,7.09044397 C1.6633822,6.64386198 1.90163086,6.23120321 2.2883822,6.00791221 L9.375,1.91645152 C9.71877897,1.71797064 10.1334683,1.69591721 10.4930052,1.85029123 L10.625,1.91645152 Z M10,3.28765841 L3.1633822,7.23478153 L3.1633822,16.3853582 C3.1633822,16.5234294 3.27531102,16.6353582 3.4133822,16.6353582 L16.5866178,16.6353582 C16.724689,16.6353582 16.8366178,16.5234294 16.8366178,16.3853582 L16.8366178,7.23478153 L10,3.28765841 Z" id="路径" transform="translate(10.000000, 9.942171) scale(-1, 1) translate(-10.000000, -9.942171) "></path>
                    <path d="M13.3040267,9.22886175 L6.69597326,9.22886175 C6.2817597,9.22886175 5.94597326,9.56464819 5.94597326,9.97886175 C5.94597326,10.3930753 6.2817597,10.7288618 6.69597326,10.7288618 L13.3040267,10.7288618 C13.7182403,10.7288618 14.0540267,10.3930753 14.0540267,9.97886175 C14.0540267,9.56464819 13.7182403,9.22886175 13.3040267,9.22886175 Z" id="直线-2"></path>
                    <path d="M13.3040267,12.2288618 L6.69597326,12.2288618 C6.2817597,12.2288618 5.94597326,12.5646482 5.94597326,12.9788618 C5.94597326,13.3930753 6.2817597,13.7288618 6.69597326,13.7288618 L13.3040267,13.7288618 C13.7182403,13.7288618 14.0540267,13.3930753 14.0540267,12.9788618 C14.0540267,12.5646482 13.7182403,12.2288618 13.3040267,12.2288618 Z" id="直线-2备份"></path>
                </g>
            </g>
        </g>
    </g>
</svg>