<?xml version="1.0" encoding="utf-8"?>
<svg version="1.1" xmlns:xlink="http://www.w3.org/1999/xlink" width="70px" height="70px" xmlns="http://www.w3.org/2000/svg">
  <g transform="matrix(1 0 0 1 -2535 -990 )">
    <path d="M 49.1731770833333 49.1731770833333  C 49.4466145833333 48.8997395833333  49.5833333333333 48.5503472222222  49 48.125  L 49 21.875  C 49.5833333333333 21.4496527777778  49.4466145833333 21.1002604166667  49.1731770833333 20.8268229166667  C 48.8997395833333 20.5533854166667  48.5503472222222 20.4166666666667  48.125 21  L 21.875 21  C 21.4496527777778 20.4166666666667  21.1002604166667 20.5533854166667  20.8268229166667 20.8268229166667  C 20.5533854166667 21.1002604166667  20.4166666666667 21.4496527777778  21 21.875  L 21 48.125  C 20.4166666666667 48.5503472222222  20.5533854166667 48.8997395833333  20.8268229166667 49.1731770833333  C 21.1002604166667 49.4466145833333  21.4496527777778 49.5833333333333  21.875 49  L 48.125 49  C 48.5503472222222 49.5833333333333  48.8997395833333 49.4466145833333  49.1731770833333 49.1731770833333  Z M 65.3059895833333 17.431640625  C 68.4353298611111 22.7940538194444  70 28.6501736111111  70 35  C 70 41.3498263888889  68.4353298611111 47.2059461805556  65.3059895833333 52.568359375  C 62.1766493055556 57.9307725694444  57.9307725694444 62.1766493055556  52.568359375 65.3059895833333  C 47.2059461805556 68.4353298611111  41.3498263888889 70  35 70  C 28.6501736111111 70  22.7940538194444 68.4353298611111  17.431640625 65.3059895833333  C 12.0692274305556 62.1766493055556  7.82335069444445 57.9307725694444  4.69401041666667 52.568359375  C 1.56467013888889 47.2059461805556  0 41.3498263888889  0 35  C 0 28.6501736111111  1.56467013888889 22.7940538194444  4.69401041666667 17.431640625  C 7.82335069444445 12.0692274305556  12.0692274305556 7.82335069444444  17.431640625 4.69401041666666  C 22.7940538194444 1.56467013888888  28.6501736111111 0  35 0  C 41.3498263888889 0  47.2059461805556 1.56467013888888  52.568359375 4.69401041666666  C 57.9307725694444 7.82335069444444  62.1766493055556 12.0692274305556  65.3059895833333 17.431640625  Z " fill-rule="nonzero" fill="#555555" stroke="none" transform="matrix(1 0 0 1 2535 990 )" />
  </g>
</svg>