<?xml version="1.0" encoding="utf-8"?>
<svg version="1.1" xmlns:xlink="http://www.w3.org/1999/xlink" width="16px" height="30px" xmlns="http://www.w3.org/2000/svg">
  <g transform="matrix(1 0 0 1 -4571 -2482 )">
    <path d="M 6 17.9631696428571  C 6.64583333333333 18.1305803571429  7.3125 18.2142857142857  8 18.2142857142857  C 8.6875 18.2142857142857  9.35416666666667 18.1305803571429  10 17.9631696428571  L 10 28.9285714285714  C 10 29.21875  9.90104166666667 29.4698660714286  9.703125 29.6819196428571  C 9.50520833333333 29.8939732142857  9.27083333333333 30  9 30  L 7 30  C 6.72916666666667 30  6.49479166666667 29.8939732142857  6.296875 29.6819196428571  C 6.09895833333333 29.4698660714286  6 29.21875  6 28.9285714285714  L 6 17.9631696428571  Z M 2.34375 2.51116071428571  C 3.90625 0.837053571428571  5.79166666666667 0  8 0  C 10.2083333333333 0  12.09375 0.837053571428571  13.65625 2.51116071428571  C 15.21875 4.18526785714286  16 6.20535714285714  16 8.57142857142857  C 16 10.9375  15.21875 12.9575892857143  13.65625 14.6316964285714  C 12.09375 16.3058035714286  10.2083333333333 17.1428571428571  8 17.1428571428571  C 5.79166666666667 17.1428571428571  3.90625 16.3058035714286  2.34375 14.6316964285714  C 0.78125 12.9575892857143  0 10.9375  0 8.57142857142857  C 0 6.20535714285714  0.78125 4.18526785714286  2.34375 2.51116071428571  Z M 4.8203125 5.16462053571429  C 5.70052083333333 4.22154017857142  6.76041666666667 3.75  8 3.75  C 8.14583333333333 3.75  8.265625 3.69977678571429  8.359375 3.59933035714286  C 8.453125 3.49888392857143  8.5 3.37053571428571  8.5 3.21428571428571  C 8.5 3.05803571428571  8.453125 2.9296875  8.359375 2.82924107142857  C 8.265625 2.72879464285714  8.14583333333333 2.67857142857143  8 2.67857142857143  C 6.47916666666667 2.67857142857143  5.18229166666667 3.25334821428571  4.109375 4.40290178571429  C 3.03645833333333 5.55245535714285  2.5 6.94196428571428  2.5 8.57142857142857  C 2.5 8.72767857142857  2.546875 8.85602678571429  2.640625 8.95647321428571  C 2.734375 9.05691964285714  2.85416666666667 9.10714285714286  3 9.10714285714286  C 3.14583333333333 9.10714285714286  3.265625 9.05691964285714  3.359375 8.95647321428571  C 3.453125 8.85602678571429  3.5 8.72767857142857  3.5 8.57142857142857  C 3.5 7.24330357142857  3.94010416666667 6.10770089285714  4.8203125 5.16462053571429  Z " fill-rule="nonzero" fill="#d9001b" stroke="none" transform="matrix(1 0 0 1 4571 2482 )" />
  </g>
</svg>