<?xml version="1.0" encoding="utf-8"?>
<svg version="1.1" xmlns:xlink="http://www.w3.org/1999/xlink" width="34px" height="34px" xmlns="http://www.w3.org/2000/svg">
  <g transform="matrix(1 0 0 1 -3341 -4745 )">
    <path d="M 3358 4745  C 3367.52 4745  3375 4752.48  3375 4762  C 3375 4771.52  3367.52 4779  3358 4779  C 3348.48 4779  3341 4771.52  3341 4762  C 3341 4752.48  3348.48 4745  3358 4745  Z " fill-rule="nonzero" fill="#ffffff" stroke="none" />
    <path d="M 3358 4745.5  C 3367.24 4745.5  3374.5 4752.76  3374.5 4762  C 3374.5 4771.24  3367.24 4778.5  3358 4778.5  C 3348.76 4778.5  3341.5 4771.24  3341.5 4762  C 3341.5 4752.76  3348.76 4745.5  3358 4745.5  Z " stroke-width="1" stroke="#797979" fill="none" />
  </g>
</svg>