<?xml version="1.0" encoding="utf-8"?>
<svg version="1.1" xmlns:xlink="http://www.w3.org/1999/xlink" width="49px" height="44px" xmlns="http://www.w3.org/2000/svg">
  <g transform="matrix(1 0 0 1 -3579 -4283 )">
    <path d="M 3603.5 4283  C 3617.22 4283  3628 4292.68  3628 4305  C 3628 4317.32  3617.22 4327  3603.5 4327  C 3589.78 4327  3579 4317.32  3579 4305  C 3579 4292.68  3589.78 4283  3603.5 4283  Z " fill-rule="nonzero" fill="#ffffff" stroke="none" />
    <path d="M 3603.5 4283.5  C 3616.94 4283.5  3627.5 4292.96  3627.5 4305  C 3627.5 4317.04  3616.94 4326.5  3603.5 4326.5  C 3590.06 4326.5  3579.5 4317.04  3579.5 4305  C 3579.5 4292.96  3590.06 4283.5  3603.5 4283.5  Z " stroke-width="1" stroke="#797979" fill="none" />
  </g>
</svg>