<?xml version="1.0" encoding="utf-8"?>
<svg version="1.1" xmlns:xlink="http://www.w3.org/1999/xlink" width="30px" height="30px" xmlns="http://www.w3.org/2000/svg">
  <g transform="matrix(1 0 0 1 -4930 -4441 )">
    <path d="M 29.9680624556423 1.13991477272727  C 30.0177430801987 1.43110795454545  29.971611071682 1.71164772727273  29.8296664300923 1.98153409090909  L 16.2029808374734 29.2542613636364  C 15.9616749467708 29.7514204545455  15.5571327182399 30  14.9893541518808 30  C 14.9183818310859 30  14.8119233498935 29.9857954545455  14.6699787083038 29.9573863636364  C 14.3577004968062 29.8863636363636  14.1057487579844 29.7265625  13.9141234918382 29.4779829545455  C 13.722498225692 29.2294034090909  13.6266855926189 28.9488636363636  14 28.6363636363636  L 14 16  L 1.36266855926189 16  C 1.05039034776437 16.3636363636364  0.770049680624557 16.2677556818182  0.521646557842442 16.0759943181818  C 0.273243435060326 15.8842329545455  0.113555713271824 15.6321022727273  0.042583392476934 15.3196022727273  C -0.028388928317956 15.0071022727273  0 14.7088068181818  0.127750177430802 14.4247159090909  C 0.255500354861604 14.140625  0.461320085166785 13.9275568181818  0.745209368346345 13.7855113636364  L 27.9985805535841 0.149147727272728  C 28.1831085876508 0.0497159090909072  28.388928317956 0  28.6160397444996 0  C 28.999290276792 0  29.3186657203691 0.134943181818179  29.5741660752307 0.404829545454547  C 29.7870830376153 0.603693181818179  29.9183818310859 0.848721590909088  29.9680624556423 1.13991477272727  Z " fill-rule="nonzero" fill="#009dd9" stroke="none" transform="matrix(1 0 0 1 4930 4441 )" />
  </g>
</svg>