<?xml version="1.0" encoding="utf-8"?>
<svg version="1.1" xmlns:xlink="http://www.w3.org/1999/xlink" width="30px" height="30px" xmlns="http://www.w3.org/2000/svg">
  <defs>
    <filter x="1041px" y="1307px" width="30px" height="30px" filterUnits="userSpaceOnUse" id="filter3">
      <feOffset dx="1" dy="1" in="SourceAlpha" result="shadowOffsetInner" />
      <feGaussianBlur stdDeviation="2.5" in="shadowOffsetInner" result="shadowGaussian" />
      <feComposite in2="shadowGaussian" operator="atop" in="SourceAlpha" result="shadowComposite" />
      <feColorMatrix type="matrix" values="0 0 0 0 0  0 0 0 0 0  0 0 0 0 0  0 0 0 0.698039215686274 0  " in="shadowComposite" />
    </filter>
    <g id="widget4">
      <path d="M 1055 1311  C 1060.6 1311  1065 1315.4  1065 1321  C 1065 1326.6  1060.6 1331  1055 1331  C 1049.4 1331  1045 1326.6  1045 1321  C 1045 1315.4  1049.4 1311  1055 1311  Z " fill-rule="nonzero" fill="#009dd9" stroke="none" />
      <path d="M 1055 1311.5  C 1060.32 1311.5  1064.5 1315.68  1064.5 1321  C 1064.5 1326.32  1060.32 1330.5  1055 1330.5  C 1049.68 1330.5  1045.5 1326.32  1045.5 1321  C 1045.5 1315.68  1049.68 1311.5  1055 1311.5  Z " stroke-width="1" stroke="#ffffff" fill="none" />
    </g>
  </defs>
  <g transform="matrix(1 0 0 1 -1041 -1307 )">
    <use xlink:href="#widget4" filter="url(#filter3)" />
    <use xlink:href="#widget4" />
  </g>
</svg>