<?xml version="1.0" encoding="utf-8"?>
<svg version="1.1" xmlns:xlink="http://www.w3.org/1999/xlink" width="24px" height="11px" xmlns="http://www.w3.org/2000/svg">
  <g transform="matrix(1 0 0 1 -1374 -1444 )">
    <path d="M 3.30803571428571 9.23111979166667  C 3.38839285714286 9.27408854166667  3.42857142857143 9.32899305555556  3.42857142857143 9.39583333333333  L 3.42857142857143 10.7708333333333  C 3.42857142857143 10.8376736111111  3.38839285714286 10.892578125  3.30803571428571 10.935546875  C 3.22767857142857 10.978515625  3.125 11  3 11  L 0.428571428571429 11  C 0.303571428571429 11  0.200892857142857 10.978515625  0.120535714285714 10.935546875  C 0.0401785714285714 10.892578125  0 10.8376736111111  0 10.7708333333333  L 0 9.39583333333333  C 0 9.32899305555556  0.0401785714285714 9.27408854166667  0.120535714285714 9.23111979166667  C 0.200892857142857 9.18815104166667  0.303571428571429 9.16666666666667  0.428571428571429 9.16666666666667  L 3 9.16666666666667  C 3.125 9.16666666666667  3.22767857142857 9.18815104166667  3.30803571428571 9.23111979166667  Z M 8.45089285714286 8.314453125  C 8.53125 8.357421875  8.57142857142857 8.41232638888889  8.57142857142857 8.47916666666667  L 8.57142857142857 10.7708333333333  C 8.57142857142857 10.8376736111111  8.53125 10.892578125  8.45089285714286 10.935546875  C 8.37053571428572 10.978515625  8.26785714285714 11  8.14285714285714 11  L 5.57142857142857 11  C 5.44642857142857 11  5.34375 10.978515625  5.26339285714286 10.935546875  C 5.18303571428571 10.892578125  5.14285714285714 10.8376736111111  5.14285714285714 10.7708333333333  L 5.14285714285714 8.47916666666667  C 5.14285714285714 8.41232638888889  5.18303571428571 8.357421875  5.26339285714286 8.314453125  C 5.34375 8.271484375  5.44642857142857 8.25  5.57142857142857 8.25  L 8.14285714285714 8.25  C 8.26785714285714 8.25  8.37053571428572 8.271484375  8.45089285714286 8.314453125  Z M 13.59375 6.48111979166667  C 13.6741071428571 6.52408854166667  13.7142857142857 6.57899305555555  13.7142857142857 6.64583333333333  L 13.7142857142857 10.7708333333333  C 13.7142857142857 10.8376736111111  13.6741071428571 10.892578125  13.59375 10.935546875  C 13.5133928571429 10.978515625  13.4107142857143 11  13.2857142857143 11  L 10.7142857142857 11  C 10.5892857142857 11  10.4866071428571 10.978515625  10.40625 10.935546875  C 10.3258928571429 10.892578125  10.2857142857143 10.8376736111111  10.2857142857143 10.7708333333333  L 10.2857142857143 6.64583333333333  C 10.2857142857143 6.57899305555555  10.3258928571429 6.52408854166667  10.40625 6.48111979166667  C 10.4866071428571 6.43815104166667  10.5892857142857 6.41666666666667  10.7142857142857 6.41666666666667  L 13.2857142857143 6.41666666666667  C 13.4107142857143 6.41666666666667  13.5133928571429 6.43815104166667  13.59375 6.48111979166667  Z M 18.7366071428571 3.73111979166667  C 18.8169642857143 3.77408854166667  18.8571428571429 3.82899305555556  18.8571428571429 3.89583333333333  L 18.8571428571429 10.7708333333333  C 18.8571428571429 10.8376736111111  18.8169642857143 10.892578125  18.7366071428571 10.935546875  C 18.65625 10.978515625  18.5535714285714 11  18.4285714285714 11  L 15.8571428571429 11  C 15.7321428571429 11  15.6294642857143 10.978515625  15.5491071428571 10.935546875  C 15.46875 10.892578125  15.4285714285714 10.8376736111111  15.4285714285714 10.7708333333333  L 15.4285714285714 3.89583333333333  C 15.4285714285714 3.82899305555556  15.46875 3.77408854166667  15.5491071428571 3.73111979166667  C 15.6294642857143 3.68815104166667  15.7321428571429 3.66666666666667  15.8571428571429 3.66666666666667  L 18.4285714285714 3.66666666666667  C 18.5535714285714 3.66666666666667  18.65625 3.68815104166667  18.7366071428571 3.73111979166667  Z M 23.8794642857143 0.064453125  C 23.9598214285714 0.107421875  24 0.162326388888887  24 0.229166666666667  L 24 10.7708333333333  C 24 10.8376736111111  23.9598214285714 10.892578125  23.8794642857143 10.935546875  C 23.7991071428571 10.978515625  23.6964285714286 11  23.5714285714286 11  L 21 11  C 20.875 11  20.7723214285714 10.978515625  20.6919642857143 10.935546875  C 20.6116071428571 10.892578125  20.5714285714286 10.8376736111111  20.5714285714286 10.7708333333333  L 20.5714285714286 0.229166666666667  C 20.5714285714286 0.162326388888887  20.6116071428571 0.107421875  20.6919642857143 0.064453125  C 20.7723214285714 0.021484375  20.875 0  21 0  L 23.5714285714286 0  C 23.6964285714286 0  23.7991071428571 0.021484375  23.8794642857143 0.064453125  Z " fill-rule="nonzero" fill="#000000" stroke="none" transform="matrix(1 0 0 1 1374 1444 )" />
  </g>
</svg>