<?xml version="1.0" encoding="utf-8"?>
<svg version="1.1" xmlns:xlink="http://www.w3.org/1999/xlink" width="64px" height="61px" xmlns="http://www.w3.org/2000/svg">
  <g transform="matrix(1 0 0 1 -16 0 )">
    <path d="M 48 0  C 65.92 0  80 13.42  80 30.5  C 80 47.58  65.92 61  48 61  C 30.08 61  16 47.58  16 30.5  C 16 13.42  30.08 0  48 0  Z " fill-rule="nonzero" fill="#ffffff" stroke="none" />
    <path d="M 48 0.5  C 65.64 0.5  79.5 13.7  79.5 30.5  C 79.5 47.3  65.64 60.5  48 60.5  C 30.36 60.5  16.5 47.3  16.5 30.5  C 16.5 13.7  30.36 0.5  48 0.5  Z " stroke-width="1" stroke="#797979" fill="none" />
  </g>
</svg>