<?xml version="1.0" encoding="utf-8"?>
<svg version="1.1" xmlns:xlink="http://www.w3.org/1999/xlink" width="120px" height="120px" xmlns="http://www.w3.org/2000/svg">
  <g transform="matrix(1 0 0 1 -1123 -1921 )">
    <path d="M 111.953125 29.8828125  C 117.317708333333 39.0755208333333  120 49.1145833333333  120 60  C 120 70.8854166666667  117.317708333333 80.9244791666667  111.953125 90.1171875  C 106.588541666667 99.3098958333333  99.3098958333333 106.588541666667  90.1171875 111.953125  C 80.9244791666667 117.317708333333  70.8854166666667 120  60 120  C 49.1145833333333 120  39.0755208333333 117.317708333333  29.8828125 111.953125  C 20.6901041666667 106.588541666667  13.4114583333333 99.3098958333333  8.046875 90.1171875  C 2.68229166666667 80.9244791666667  0 70.8854166666667  0 60  C 0 49.1145833333333  2.68229166666667 39.0755208333333  8.046875 29.8828125  C 13.4114583333333 20.6901041666667  20.6901041666667 13.4114583333333  29.8828125 8.046875  C 39.0755208333333 2.68229166666666  49.1145833333333 0  60 0  C 70.8854166666667 0  80.9244791666667 2.68229166666666  90.1171875 8.046875  C 99.3098958333333 13.4114583333333  106.588541666667 20.6901041666667  111.953125 29.8828125  Z " fill-rule="nonzero" fill="#555555" stroke="none" transform="matrix(1 0 0 1 1123 1921 )" />
  </g>
</svg>