<?xml version="1.0" encoding="utf-8"?>
<svg version="1.1" xmlns:xlink="http://www.w3.org/1999/xlink" width="66px" height="28px" xmlns="http://www.w3.org/2000/svg">
  <defs>
    <mask fill="white" id="clip24">
      <path d="M 0 23  L 0 5  C 0 2.20000000000005  2.19999999999982 0  5 0  L 18 0  L 61 0  C 63.8000000000002 0  66 2.20000000000005  66 5  L 66 23  C 66 25.8  63.8000000000002 28  61 28  L 5 28  C 2.19999999999982 28  0 25.8  0 23  Z " fill-rule="evenodd" />
    </mask>
  </defs>
  <g transform="matrix(1 0 0 1 -2653 -6963 )">
    <path d="M 0 23  L 0 5  C 0 2.20000000000005  2.19999999999982 0  5 0  L 18 0  L 61 0  C 63.8000000000002 0  66 2.20000000000005  66 5  L 66 23  C 66 25.8  63.8000000000002 28  61 28  L 5 28  C 2.19999999999982 28  0 25.8  0 23  Z " fill-rule="nonzero" fill="#f2f2f2" stroke="none" transform="matrix(1 0 0 1 2653 6963 )" />
    <path d="M 0 23  L 0 5  C 0 2.20000000000005  2.19999999999982 0  5 0  L 18 0  L 61 0  C 63.8000000000002 0  66 2.20000000000005  66 5  L 66 23  C 66 25.8  63.8000000000002 28  61 28  L 5 28  C 2.19999999999982 28  0 25.8  0 23  Z " stroke-width="2" stroke="#797979" fill="none" transform="matrix(1 0 0 1 2653 6963 )" mask="url(#clip24)" />
  </g>
</svg>