<?xml version="1.0" encoding="utf-8"?>
<svg version="1.1" xmlns:xlink="http://www.w3.org/1999/xlink" width="30px" height="31px" xmlns="http://www.w3.org/2000/svg">
  <defs>
    <filter x="1091px" y="5060px" width="30px" height="31px" filterUnits="userSpaceOnUse" id="filter38">
      <feOffset dx="1" dy="1" in="SourceAlpha" result="shadowOffsetInner" />
      <feGaussianBlur stdDeviation="2.5" in="shadowOffsetInner" result="shadowGaussian" />
      <feComposite in2="shadowGaussian" operator="atop" in="SourceAlpha" result="shadowComposite" />
      <feColorMatrix type="matrix" values="0 0 0 0 0  0 0 0 0 0  0 0 0 0 0  0 0 0 0.698039215686274 0  " in="shadowComposite" />
    </filter>
    <g id="widget39">
      <path d="M 1105 5064  C 1110.6 5064  1115 5068.62  1115 5074.5  C 1115 5080.38  1110.6 5085  1105 5085  C 1099.4 5085  1095 5080.38  1095 5074.5  C 1095 5068.62  1099.4 5064  1105 5064  Z " fill-rule="nonzero" fill="#009dd9" stroke="none" />
      <path d="M 1105 5064.5  C 1110.32 5064.5  1114.5 5068.9  1114.5 5074.5  C 1114.5 5080.1  1110.32 5084.5  1105 5084.5  C 1099.68 5084.5  1095.5 5080.1  1095.5 5074.5  C 1095.5 5068.9  1099.68 5064.5  1105 5064.5  Z " stroke-width="1" stroke="#ffffff" fill="none" />
    </g>
  </defs>
  <g transform="matrix(1 0 0 1 -1091 -5060 )">
    <use xlink:href="#widget39" filter="url(#filter38)" />
    <use xlink:href="#widget39" />
  </g>
</svg>