<?xml version="1.0" encoding="utf-8"?>
<svg version="1.1" xmlns:xlink="http://www.w3.org/1999/xlink" width="10px" height="20px" xmlns="http://www.w3.org/2000/svg">
  <g transform="matrix(1 0 0 1 -1749 -328 )">
    <path d="M 9.82817869415807 1.20240480961924  C 9.94272623138603 1.33600534402137  10 1.48964595858383  10 1.66332665330661  C 10 1.83700734802939  9.94272623138603 1.99064796259185  9.82817869415807 2.12424849699399  L 3.07560137457045 10  L 9.82817869415807 17.875751503006  C 9.94272623138603 18.0093520374081  10 18.1629926519706  10 18.3366733466934  C 10 18.5103540414162  9.94272623138603 18.6639946559786  9.82817869415807 18.7975951903808  L 8.96907216494845 19.7995991983968  C 8.8545246277205 19.9331997327989  8.72279495990836 20  8.57388316151203 20  C 8.4249713631157 20  8.29324169530355 19.9331997327989  8.1786941580756 19.7995991983968  L 0.171821305841924 10.4609218436874  C 0.0572737686139748 10.3273213092852  0 10.1736806947228  0 10  C 0 9.82631930527722  0.0572737686139748 9.67267869071476  0.171821305841924 9.53907815631263  L 8.1786941580756 0.200400801603207  C 8.29324169530355 0.0668002672010681  8.4249713631157 0  8.57388316151203 0  C 8.72279495990836 0  8.8545246277205 0.0668002672010681  8.96907216494845 0.200400801603207  L 9.82817869415807 1.20240480961924  Z " fill-rule="nonzero" fill="#7f7f7f" stroke="none" transform="matrix(1 0 0 1 1749 328 )" />
  </g>
</svg>