<?xml version="1.0" encoding="utf-8"?>
<svg version="1.1" xmlns:xlink="http://www.w3.org/1999/xlink" width="35px" height="36px" xmlns="http://www.w3.org/2000/svg">
  <g transform="matrix(1 0 0 1 0 -5 )">
    <path d="M 33.0745442708333 1.98046875  C 34.3581814236111 3.30078125  35 4.89062499999999  35 6.75  L 35 29.25  C 35 31.109375  34.3581814236111 32.69921875  33.0745442708333 34.01953125  C 31.7909071180556 35.33984375  30.2452256944444 36  28.4375 36  L 6.5625 36  C 4.75477430555556 36  3.20909288194444 35.33984375  1.92545572916667 34.01953125  C 0.641818576388889 32.69921875  0 31.109375  0 29.25  L 0 6.75  C 0 4.89062499999999  0.641818576388889 3.30078125  1.92545572916667 1.98046875  C 3.20909288194444 0.660156249999998  4.75477430555556 0  6.5625 0  L 28.4375 0  C 30.2452256944444 0  31.7909071180556 0.660156249999998  33.0745442708333 1.98046875  Z " fill-rule="nonzero" fill="#555555" stroke="none" transform="matrix(1 0 0 1 0 5 )" />
  </g>
</svg>