<?xml version="1.0" encoding="UTF-8"?>
<svg width="20px" height="20px" viewBox="0 0 20 20" version="1.1" xmlns="http://www.w3.org/2000/svg" xmlns:xlink="http://www.w3.org/1999/xlink">
    <!-- Generator: Sketch 59.1 (86144) - https://sketch.com -->
    <title>icon_menu_peizhi_nor</title>
    <desc>Created with Sketch.</desc>
    <g id="页面-1" stroke="none" stroke-width="1" fill="none" fill-rule="evenodd">
        <g id="基础信息_仓库管理_列表" transform="translate(-31.000000, -513.000000)" fill="#887E7E" fill-rule="nonzero">
            <g id="-mockplus-" transform="translate(30.890598, 512.992948)">
                <g id="icon_menu_gongzuotai备份-23" transform="translate(0.109402, 0.007052)">
                    <path d="M11.375,1.30051188 L16.8464777,4.45947101 C17.6973307,4.9507112 18.2214777,5.8585605 18.2214777,6.84104087 L18.2214777,13.1589591 C18.2214777,14.1414395 17.6973307,15.0492888 16.8464777,15.540529 L11.375,18.6994881 C10.524147,19.1907283 9.47585296,19.1907283 8.625,18.6994881 L3.15352229,15.540529 C2.30266933,15.0492888 1.77852229,14.1414395 1.77852229,13.1589591 L1.77852229,6.84104087 C1.77852229,5.8585605 2.30266933,4.9507112 3.15352229,4.45947101 L8.625,1.30051188 C9.41912943,0.84202104 10.385252,0.811454984 11.2023139,1.20881371 L11.375,1.30051188 Z M10.625,2.59954999 L10.4930052,2.53338969 C10.1334683,2.37901567 9.71877897,2.4010691 9.375,2.59954999 L3.90352229,5.75850912 C3.51677094,5.98180011 3.27852229,6.39445888 3.27852229,6.84104087 L3.27852229,13.1589591 C3.27852229,13.6055411 3.51677094,14.0181999 3.90352229,14.2414909 L9.375,17.40045 C9.76175135,17.623741 10.2382487,17.623741 10.625,17.40045 L16.0964777,14.2414909 C16.4832291,14.0181999 16.7214777,13.6055411 16.7214777,13.1589591 L16.7214777,6.84104087 C16.7214777,6.39445888 16.4832291,5.98180011 16.0964777,5.75850912 L10.625,2.59954999 Z" id="多边形" transform="translate(10.000000, 10.000000) rotate(-270.000000) translate(-10.000000, -10.000000) "></path>
                    <path d="M10,6.34815593 C12.0049422,6.34815593 13.630269,7.97348272 13.630269,9.97842491 C13.630269,11.9833671 12.0049422,13.6086939 10,13.6086939 C7.99505781,13.6086939 6.36973102,11.9833671 6.36973102,9.97842491 C6.36973102,7.97348272 7.99505781,6.34815593 10,6.34815593 Z M10,7.84815593 C8.82348493,7.84815593 7.86973102,8.80190984 7.86973102,9.97842491 C7.86973102,11.15494 8.82348493,12.1086939 10,12.1086939 C11.1765151,12.1086939 12.130269,11.15494 12.130269,9.97842491 C12.130269,8.80190984 11.1765151,7.84815593 10,7.84815593 Z" id="椭圆形"></path>
                </g>
            </g>
        </g>
    </g>
</svg>