<?xml version="1.0" encoding="UTF-8"?>
<svg width="20px" height="20px" viewBox="0 0 20 20" version="1.1" xmlns="http://www.w3.org/2000/svg" xmlns:xlink="http://www.w3.org/1999/xlink">
    <!-- Generator: Sketch 59.1 (86144) - https://sketch.com -->
    <title>icon_menu_gzt_nor</title>
    <desc>Created with Sketch.</desc>
    <g id="页面-1" stroke="none" stroke-width="1" fill="none" fill-rule="evenodd">
        <g id="基础信息_仓库管理_新增-展开标签" transform="translate(-31.000000, -150.000000)" fill="#887E7E" fill-rule="nonzero">
            <g id="-mockplus-" transform="translate(30.890598, 149.884663)">
                <g id="icon_menu_gongzuotai备份-21" transform="translate(0.109402, 0.115337)">
                    <path d="M8.05358887,2.46020508 C8.60587362,2.46020508 9.05358887,2.90792033 9.05358887,3.46020508 L9.05358887,9.98168945 C9.05358887,10.5339742 8.60587362,10.9816895 8.05358887,10.9816895 L3.33312988,10.9816895 C2.78084513,10.9816895 2.33312988,10.5339742 2.33312988,9.98168945 L2.33312988,3.46020508 C2.33312988,2.90792033 2.78084513,2.46020508 3.33312988,2.46020508 L8.05358887,2.46020508 Z M7.55358887,3.96020508 L3.83312988,3.96020508 L3.83312988,9.48168945 L7.55358887,9.48168945 L7.55358887,3.96020508 Z" id="矩形"></path>
                    <path d="M16.6668701,9.01831055 C17.2191549,9.01831055 17.6668701,9.4660258 17.6668701,10.0183105 L17.6668701,16.5397949 C17.6668701,17.0920797 17.2191549,17.5397949 16.6668701,17.5397949 L11.9464111,17.5397949 C11.3941264,17.5397949 10.9464111,17.0920797 10.9464111,16.5397949 L10.9464111,10.0183105 C10.9464111,9.4660258 11.3941264,9.01831055 11.9464111,9.01831055 L16.6668701,9.01831055 Z M12.4464111,10.5183105 L12.4464111,16.0397949 L16.1668701,16.0397949 L16.1668701,10.5183105 L12.4464111,10.5183105 Z" id="矩形备份-3" transform="translate(14.306641, 13.279053) rotate(-180.000000) translate(-14.306641, -13.279053) "></path>
                    <path d="M8.05358887,12.6643066 C8.60587362,12.6643066 9.05358887,13.1120219 9.05358887,13.6643066 L9.05358887,16.5397949 C9.05358887,17.0920797 8.60587362,17.5397949 8.05358887,17.5397949 L3.33312988,17.5397949 C2.78084513,17.5397949 2.33312988,17.0920797 2.33312988,16.5397949 L2.33312988,13.6643066 C2.33312988,13.1120219 2.78084513,12.6643066 3.33312988,12.6643066 L8.05358887,12.6643066 Z M7.55358887,14.1643066 L3.83312988,14.1643066 L3.83312988,16.0397949 L7.55358887,16.0397949 L7.55358887,14.1643066 Z" id="矩形备份-2"></path>
                    <path d="M16.6668701,2.46020508 C17.2191549,2.46020508 17.6668701,2.90792033 17.6668701,3.46020508 L17.6668701,6.33569336 C17.6668701,6.88797811 17.2191549,7.33569336 16.6668701,7.33569336 L11.9464111,7.33569336 C11.3941264,7.33569336 10.9464111,6.88797811 10.9464111,6.33569336 L10.9464111,3.46020508 C10.9464111,2.90792033 11.3941264,2.46020508 11.9464111,2.46020508 L16.6668701,2.46020508 Z M16.1668701,3.96020508 L12.4464111,3.96020508 L12.4464111,5.83569336 L16.1668701,5.83569336 L16.1668701,3.96020508 Z" id="矩形备份-4" transform="translate(14.306641, 4.897949) rotate(-180.000000) translate(-14.306641, -4.897949) "></path>
                </g>
            </g>
        </g>
    </g>
</svg>