<?xml version="1.0" encoding="UTF-8"?>
<svg width="20px" height="20px" viewBox="0 0 20 20" version="1.1" xmlns="http://www.w3.org/2000/svg" xmlns:xlink="http://www.w3.org/1999/xlink">
    <!-- Generator: Sketch 59.1 (86144) - https://sketch.com -->
    <title>icon_menu_rkgl_nor</title>
    <desc>Created with Sketch.</desc>
    <g id="页面-1" stroke="none" stroke-width="1" fill="none" fill-rule="evenodd">
        <g id="基础信息_仓库管理_列表" transform="translate(-31.000000, -681.000000)" fill="#887E7E" fill-rule="nonzero">
            <g id="-mockplus-" transform="translate(30.890598, 680.992948)">
                <g id="icon_menu_gongzuotai备份-26" transform="translate(0.109402, 0.007052)">
                    <path d="M3.1633822,7.23478153 L10,3.28765841 L16.8366178,7.23478153 L16.8366178,16.7087402 L12.4414063,16.7087402 C12.0271927,16.7087402 11.6914063,17.0445267 11.6914063,17.4587402 C11.6914063,17.8729538 12.0271927,18.2087402 12.4414063,18.2087402 L17.0866178,18.2087402 C17.7769737,18.2087402 18.3366178,17.6490962 18.3366178,16.9587402 L18.3366178,7.09044397 C18.3366178,6.64386198 18.0983691,6.23120321 17.7116178,6.00791221 L10.625,1.91645152 C10.2382487,1.69316053 9.76175135,1.69316053 9.375,1.91645152 L2.2883822,6.00791221 C1.90163086,6.23120321 1.6633822,6.64386198 1.6633822,7.09044397 L1.6633822,10.5698242 C1.6633822,10.9840378 1.99916864,11.3198242 2.4133822,11.3198242 C2.82759577,11.3198242 3.1633822,10.9840378 3.1633822,10.5698242 L3.1633822,7.23478153 Z" id="路径"></path>
                    <path d="M8.37886786,16.5876081 C8.37886786,17.0018217 8.7146543,17.3376081 9.12886786,17.3376081 C9.54308142,17.3376081 9.87886786,17.0018217 9.87886786,16.5876081 L9.87886786,12.3814101 C9.87886786,11.9671965 9.54308142,11.6314101 9.12886786,11.6314101 L4.92266982,11.6314101 C4.50845625,11.6314101 4.17266982,11.9671965 4.17266982,12.3814101 C4.17266982,12.7956236 4.50845625,13.1314101 4.92266982,13.1314101 L8.37886786,13.1314101 L8.37886786,16.5876081 Z" id="路径" transform="translate(7.025769, 14.484509) rotate(-315.000000) translate(-7.025769, -14.484509) "></path>
                    <path d="M9.02143567,13.7345091 L2.4133822,13.7345091 C1.99916864,13.7345091 1.6633822,14.0702955 1.6633822,14.4845091 C1.6633822,14.8987226 1.99916864,15.2345091 2.4133822,15.2345091 L9.02143567,15.2345091 C9.43564924,15.2345091 9.77143567,14.8987226 9.77143567,14.4845091 C9.77143567,14.0702955 9.43564924,13.7345091 9.02143567,13.7345091 Z" id="直线-2"></path>
                </g>
            </g>
        </g>
    </g>
</svg>